<svg xmlns="http://www.w3.org/2000/svg" viewBox="0 0 64 64" fill="none">
  <rect width="64" height="64" rx="16" fill="#0B1220"/>
  <path d="M20 34c0 7 5 12 12 12 9 0 14-7 14-14 0-9-7-14-14-14-7 0-12 5-12 12Z" fill="#38BDF8" opacity="0.22"/>
  <path d="M22 33.5c0-6.4 5.1-11.5 11.5-11.5 7.6 0 12.5 6.1 12.5 12.5 0 7.6-6.1 12.5-12.5 12.5-6.4 0-11.5-5.1-11.5-11.5Z" stroke="#38BDF8" stroke-width="2"/>
  <path d="M28 35l6 6 14-14" stroke="#A78BFA" stroke-width="3" stroke-linecap="round" stroke-linejoin="round"/>
</svg>

